#!OML:ASF E:\Style4\Style4.ASF
:FULLY-SPECIFIED
:DEGREES
2563
root 1.01815 17.4641 -1.89055 12.4292 1.49871 5.69107
lowerback 20.5784 -2.00828 -3.34461
upperback 12.6257 -3.06091 4.79553
thorax 2.77435 -1.94677 7.6182
lowerneck 0.675271 -7.62083 -27.7087
upperneck 30.761 -8.6958 3.28275
head 11.7617 -6.52049 4.84805
rclavicle 2.54444e-014 -2.06736e-014
rhumerus 63.6975 36.4789 -1511.75
rradius 42.3722
rwrist 1364.3
rhand -14.3751 12.3496
rfingers 7.12502
rthumb 11.7674 -17.2999
lclavicle 2.54444e-014 -2.06736e-014
lhumerus 43.5204 25.1357 22.2671
lradius 122.239
lwrist 46.3708
lhand -8.86711 28.2104
lfingers 7.12502
lthumb 17.0744 57.4801
rfemur -37.9457 -7.99243 10.5713
rtibia 44.7139
rfoot -15.7716 -17.0714
rtoes -13.7017
lfemur -35.6196 3.2392 -30.0824
ltibia 38.937
lfoot -15.8218 7.91713
ltoes -10.8533
2564
root 1.04401 17.4476 -1.9 12.3858 0.805145 5.59404
lowerback 20.5449 -1.97414 -3.16093
upperback 12.8035 -2.99924 4.73994
thorax 2.96264 -1.91512 7.43426
lowerneck 1.83583 -7.42852 -27.7041
upperneck 29.2333 -9.06317 4.12653
head 11.0017 -6.52869 5.16018
rclavicle 2.46493e-014 -4.29375e-014
rhumerus 62.9103 35.8116 -1512.95
rradius 41.4082
rwrist 1364.53
rhand -14.8846 12.5443
rfingers 7.12502
rthumb 11.2761 -17.1326
lclavicle 2.46493e-014 -4.29375e-014
lhumerus 44.069 25.0903 22.4511
lradius 122.167
lwrist 46.3235
lhand -8.64061 28.1411
lfingers 7.12502
lthumb 17.2924 57.3918
rfemur -38.2497 -7.58696 10.5303
rtibia 44.8882
rfoot -15.7164 -16.801
rtoes -13.7279
lfemur -35.915 3.52667 -30.1093
ltibia 39.4781
lfoot -16.2223 8.2612
ltoes -11.0414
2565
root 1.0675 17.4288 -1.91025 12.3752 0.139573 5.44956
lowerback 20.5545 -1.93424 -2.90408
upperback 12.9179 -2.91742 4.68847
thorax 3.05062 -1.86342 7.21316
lowerneck 3.0024 -7.23011 -27.5903
upperneck 27.8787 -9.38933 4.93759
head 10.3212 -6.53393 5.44655
rclavicle -1.27222e-014 9.22361e-014
rhumerus 62.0882 35.0635 -1514.08
rradius 40.4983
rwrist 1364.69
rhand -15.4552 12.388
rfingers 7.12502
rthumb 10.7257 -17.3182
lclavicle -1.27222e-014 9.22361e-014
lhumerus 44.6179 24.9327 22.6179
lradius 122.117
lwrist 46.3112
lhand -8.52676 28
lfingers 7.12502
lthumb 17.4019 57.241
rfemur -38.6081 -7.19196 10.5682
rtibia 45.0879
rfoot -15.6045 -16.5864
rtoes -13.8751
lfemur -36.2563 3.82296 -30.0822
ltibia 40.0033
lfoot -16.4939 8.58682
ltoes -11.5803
2566
root 1.09254 17.4101 -1.91892 12.3249 -0.560593 5.37452
lowerback 20.6295 -1.85456 -2.74376
upperback 13.0604 -2.80073 4.63624
thorax 3.14048 -1.80098 7.04456
lowerneck 4.65118 -6.95219 -27.548
upperneck 25.9293 -9.79491 6.07911
head 9.38769 -6.54499 5.86541
rclavicle -4.45278e-014 2.54444e-014
rhumerus 61.2582 34.2684 -1515.26
rradius 39.5636
rwrist 1365
rhand -15.9754 12.2941
rfingers 7.12502
rthumb 10.2239 -17.4375
lclavicle -4.45278e-014 2.54444e-014
lhumerus 45.2957 24.7993 22.8594
lradius 121.99
lwrist 46.3194
lhand -8.44146 27.8741
lfingers 7.12502
lthumb 17.484 57.1079
rfemur -38.9512 -6.81076 10.5186
rtibia 45.3167
rfoot -15.4608 -16.3809
rtoes -14.4011
lfemur -36.5254 4.11013 -30.1367
ltibia 40.4934
lfoot -16.843 8.99391
ltoes -11.9765
2567
root 1.11775 17.3901 -1.92691 12.304 -1.26281 5.44018
lowerback 20.7017 -1.76287 -2.7158
upperback 13.1775 -2.68882 4.55207
thorax 3.21146 -1.74631 6.91832
lowerneck 2.71878 -7.60664 -26.3821
upperneck 28.1956 -9.84507 4.69264
head 10.4628 -6.6596 5.11932
rclavicle -8.74653e-015 -3.02153e-014
rhumerus 60.443 33.4442 -1516.33
rradius 38.6675
rwrist 1365.4
rhand -16.417 12.4507
rfingers 7.12502
rthumb 9.79785 -17.3013
lclavicle -8.74653e-015 -3.02153e-014
lhumerus 46.0037 24.6703 23.0967
lradius 121.854
lwrist 46.3667
lhand -8.33464 27.8372
lfingers 7.12502
lthumb 17.5868 57.0618
rfemur -39.3388 -6.51322 10.3263
rtibia 45.5723
rfoot -15.3053 -16.1412
rtoes -14.8357
lfemur -36.8078 4.29144 -30.336
ltibia 40.9552
lfoot -17.1592 9.47264
ltoes -12.1188
2568
root 1.14194 17.3697 -1.93531 12.3079 -1.96258 5.41739
lowerback 20.7724 -1.69735 -2.56427
upperback 13.2626 -2.59054 4.44861
thorax 3.23999 -1.68732 6.70212
lowerneck 4.37888 -7.37806 -26.2717
upperneck 26.3522 -10.2711 5.73849
head 9.55976 -6.69305 5.49698
rclavicle 1.51076e-014 -3.97569e-015
rhumerus 59.5251 32.5827 -1517.53
rradius 37.8025
rwrist 1365.83
rhand -16.9006 12.5664
rfingers 7.12502
rthumb 9.33122 -17.2071
lclavicle 1.51076e-014 -3.97569e-015
lhumerus 46.6059 24.5036 23.2675
lradius 121.787
lwrist 46.4131
lhand -8.31067 27.9457
lfingers 7.12502
lthumb 17.6099 57.1682
rfemur -39.7476 -6.16472 10.2254
rtibia 45.8217
rfoot -15.2629 -15.8507
rtoes -14.9102
lfemur -37.1093 4.46106 -30.4277
ltibia 41.3896
lfoot -17.3366 9.94012
ltoes -12.22
2569
root 1.16543 17.3518 -1.94358 12.2505 -2.67059 5.36096
lowerback 20.909 -1.6339 -2.3834
upperback 13.374 -2.49113 4.35401
thorax 3.26565 -1.62705 6.48139
lowerneck 2.05069 -8.15816 -25.2932
upperneck 29.252 -10.3823 4.25432
head 10.9796 -6.87852 4.70857
rclavicle -1.51076e-014 -2.46493e-014
rhumerus 58.53 31.6585 -1518.96
rradius 36.9519
rwrist 1366.42
rhand -17.5911 12.5991
rfingers 7.12502
rthumb 8.66497 -17.203
lclavicle -1.51076e-014 -2.46493e-014
lhumerus 47.1998 24.3855 23.5294
lradius 121.761
lwrist 46.3732
lhand -8.16028 28.3577
lfingers 7.12502
lthumb 17.7546 57.5671
rfemur -40.0879 -5.78245 10.1571
rtibia 46.0696
rfoot -15.2715 -15.53
rtoes -14.9198
lfemur -37.3241 4.70022 -30.4839
ltibia 41.8017
lfoot -17.5337 10.3556
ltoes -12.4799
2570
root 1.18924 17.3352 -1.94859 12.1603 -3.34718 5.28212
lowerback 21.057 -1.57643 -2.25395
upperback 13.4856 -2.40748 4.31947
thorax 3.29684 -1.5815 6.35956
lowerneck 2.06792 -8.25749 -24.9566
upperneck 29.3148 -10.5662 4.29257
head 11.0015 -6.92878 4.65265
rclavicle -3.26007e-014 1.90833e-014
rhumerus 57.578 30.7802 -1520.32
rradius 35.9957
rwrist 1367.35
rhand -18.1007 12.5059
rfingers 7.12502
rthumb 8.17317 -17.316
lclavicle -3.26007e-014 1.90833e-014
lhumerus 47.6381 24.2231 23.7657
lradius 121.84
lwrist 46.4318
lhand -8.05646 28.6409
lfingers 7.12502
lthumb 17.8545 57.8413
rfemur -40.3547 -5.45896 10.1299
rtibia 46.3003
rfoot -15.2167 -15.2712
rtoes -15.4404
lfemur -37.4694 4.92278 -30.5094
ltibia 42.2103
lfoot -17.9459 10.7377
ltoes -12.3055
2571
root 1.21232 17.3169 -1.95121 12.1212 -4.07686 5.27633
lowerback 21.1319 -1.49954 -2.23317
upperback 13.5773 -2.31659 4.25046
thorax 3.34535 -1.53765 6.258
lowerneck 2.355 -8.3036 -24.6188
upperneck 29.0196 -10.7735 4.42574
head 10.8388 -6.96841 4.63964
rclavicle -1.66979e-014 6.36111e-015
rhumerus 56.7135 29.9535 -1521.51
rradius 34.9425
rwrist 1368.43
rhand -18.3558 12.731
rfingers 7.12502
rthumb 7.92692 -17.1004
lclavicle -1.66979e-014 6.36111e-015
lhumerus 48.0645 24.0131 23.9022
lradius 121.893
lwrist 46.7151
lhand -8.40698 28.6196
lfingers 7.12502
lthumb 17.5172 57.8504
rfemur -40.6906 -5.10506 10.0075
rtibia 46.5372
rfoot -15.1927 -14.9676
rtoes -15.4399
lfemur -37.6817 5.21869 -30.6362
ltibia 42.6257
lfoot -18.3952 10.9925
ltoes -11.8991
2572
root 1.23205 17.297 -1.95659 12.0846 -4.79028 5.30438
lowerback 21.2045 -1.40468 -2.18864
upperback 13.6838 -2.1989 4.1311
thorax 3.40392 -1.47625 6.08251
lowerneck 2.60765 -8.446 -24.2331
upperneck 28.8048 -11.0816 4.49047
head 10.7251 -7.0576 4.5794
rclavicle 1.74931e-014 1.59028e-014
rhumerus 55.8882 28.9688 -1522.76
rradius 33.8852
rwrist 1369.64
rhand -18.6881 13.0664
rfingers 7.12502
rthumb 7.6062 -16.7769
lclavicle 1.74931e-014 1.59028e-014
lhumerus 48.7342 23.7336 24.0583
lradius 121.759
lwrist 46.5714
lhand -8.75722 28.4232
lfingers 7.12502
lthumb 17.1801 57.6836
rfemur -41.0639 -4.78344 9.87695
rtibia 46.7841
rfoot -15.0937 -14.6894
rtoes -15.8259
lfemur -37.9464 5.53658 -30.7907
ltibia 43.0879
lfoot -18.7002 11.2397
ltoes -11.757
2573
root 1.25054 17.2764 -1.96476 12.045 -5.41093 5.25198
lowerback 21.2631 -1.35371 -1.95783
upperback 13.8268 -2.10804 3.99907
thorax 3.50471 -1.41612 5.78991
lowerneck 2.61599 -8.6957 -23.8157
upperneck 28.8766 -11.4576 4.49351
head 10.7738 -7.18835 4.47222
rclavicle -2.38542e-015 2.46493e-014
rhumerus 55.1832 27.7896 -1524.03
rradius 32.8397
rwrist 1370.95
rhand -18.887 12.84
rfingers 7.12502
rthumb 7.41423 -17.0101
lclavicle -2.38542e-015 2.46493e-014
lhumerus 49.5155 23.5171 24.2303
lradius 121.666
lwrist 46.1439
lhand -8.67023 28.5916
lfingers 7.12502
lthumb 17.2639 57.8448
rfemur -41.4054 -4.52096 9.86187
rtibia 47.0409
rfoot -14.9826 -14.457
rtoes -16.5801
lfemur -38.2342 5.8344 -30.844
ltibia 43.6048
lfoot -19.0036 11.4363
ltoes -11.5854
2574
root 1.26927 17.2538 -1.97149 12.0692 -6.00378 5.09475
lowerback 21.291 -1.32175 -1.61483
upperback 13.9446 -2.02312 3.871
thorax 3.5891 -1.34992 5.43799
lowerneck 2.67047 -8.94421 -23.2539
upperneck 28.8962 -11.8525 4.49177
head 10.7808 -7.31254 4.34215
rclavicle -7.15625e-015 -4.77083e-015
rhumerus 54.5418 26.5731 -1525.15
rradius 31.7786
rwrist 1372.13
rhand -18.9341 12.6683
rfingers 7.12502
rthumb 7.36874 -17.1834
lclavicle -7.15625e-015 -4.77083e-015
lhumerus 50.2812 23.3226 24.4345
lradius 121.665
lwrist 46.0437
lhand -8.61358 28.8626
lfingers 7.12502
lthumb 17.3184 58.111
rfemur -41.7957 -4.25716 9.96287
rtibia 47.2959
rfoot -14.8843 -14.2068
rtoes -17.1505
lfemur -38.6229 6.17683 -30.8123
ltibia 44.1763
lfoot -19.3119 11.6311
ltoes -11.5331
